<svg xmlns="http://www.w3.org/2000/svg" xmlns:xlink="http://www.w3.org/1999/xlink" width="212" height="212" viewBox="0 0 212 212">
  <defs>
    <polygon id="a" points="3.421 2 1.281 2 1.281 0 3.421 0 3.421 2"/>
  </defs>
  <g fill="none" fill-rule="evenodd" transform="translate(24 24)">
    <path fill="#7289DA" d="M-0.0004,72.5986 L76.1576,7.7226 C78.3716,5.8386 81.6276,5.8386 83.8416,7.7226 L159.9996,72.5986 L159.9996,125.9326 L-0.0004,125.9326 L-0.0004,72.5986 Z"/>
    <path stroke="#1E2126" stroke-linecap="round" stroke-linejoin="round" stroke-width="4" d="M159.9996,72.5986 L83.8416,7.7226 C81.6276,5.8386 78.3716,5.8386 76.1576,7.7226 L-0.0004,72.5986"/>
    <path fill="#F3F8FF" d="M135.2594,146.6728 L24.7414,146.6728 C22.5314,146.6728 20.7414,144.8808 20.7414,142.6728 L20.7414,39.5608 C20.7414,37.3528 22.5314,35.5608 24.7414,35.5608 L135.2594,35.5608 C137.4674,35.5608 139.2594,37.3528 139.2594,39.5608 L139.2594,142.6728 C139.2594,144.8808 137.4674,146.6728 135.2594,146.6728"/>
    <path stroke="#1E2126" stroke-linecap="round" stroke-linejoin="round" stroke-width="4" d="M135.2594,146.6728 L24.7414,146.6728 C22.5314,146.6728 20.7414,144.8808 20.7414,142.6728 L20.7414,39.5608 C20.7414,37.3528 22.5314,35.5608 24.7414,35.5608 L135.2594,35.5608 C137.4674,35.5608 139.2594,37.3528 139.2594,39.5608 L139.2594,142.6728 C139.2594,144.8808 137.4674,146.6728 135.2594,146.6728 Z"/>
    <path fill="#FF6F57" d="M120.2576,83.163 C120.2576,70.895 110.3136,60.953 98.0476,60.953 C90.6016,60.953 84.0316,64.627 79.9996,70.245 C75.9696,64.627 69.3976,60.953 61.9536,60.953 C49.6876,60.953 39.7436,70.895 39.7436,83.163 C39.7436,84.901 39.9636,86.585 40.3416,88.205 C43.4256,107.369 64.7296,127.585 79.9996,133.135 C95.2676,127.585 116.5756,107.369 119.6556,88.207 C120.0376,86.585 120.2576,84.901 120.2576,83.163"/>
    <path fill="#C9D2F0" d="M159.9996,156.4482 L159.9996,72.5982 L79.9996,125.9322 L-0.0004,72.5982 L-0.0004,156.4482 C-0.0004,158.6562 1.7916,160.4482 3.9996,160.4482 L155.9996,160.4482 C158.2076,160.4482 159.9996,158.6562 159.9996,156.4482"/>
    <g transform="translate(108 160.448)">
      <mask id="b" fill="white">
        <use xlink:href="#a"/>
      </mask>
      <path stroke="#1E2126" stroke-linecap="round" stroke-linejoin="round" stroke-width="4" d="M1.281,0.0004 L3.421,0.0004" mask="url(#b)"/>
    </g>
    <path stroke="#1E2126" stroke-linecap="round" stroke-linejoin="round" stroke-width="4" d="M101.8796 160.4482L3.9996 160.4482C1.7916 160.4482-.0004 158.6562-.0004 156.4482L-.0004 72.5982 79.9996 125.9322 159.9996 72.5982 159.9996 156.4482C159.9996 158.6562 158.2096 160.4482 155.9996 160.4482L127.4196 160.4482M57.6334 111.0224L2.9634 157.4844M157.0368 157.4854L102.3728 111.0274"/>
    <path stroke="#D5DBED" stroke-linecap="round" stroke-linejoin="round" stroke-width="2" d="M41.6618 1.001L39.6738 3.473M31.6578 11.3368L29.6698 13.8088M42.071 13.495L39.925 11.125M31.407 3.6826L29.261 1.3126M159.9996 28.2002L159.9996 38.6062M165.2038 33.4032L154.7958 33.4032"/>
  </g>
</svg>
